<svg xmlns="http://www.w3.org/2000/svg" viewBox="0 0 902.38666 122.8" height="122.8" width="902.387">
    <path d="M301.655 68.497c0-10.3-2.642-17.962-13.443-17.962-3.01 0-8.537.38-12.057.876v43.84c2.388.502 7.534.88 12.057.88 10.801 0 13.443-7.666 13.443-17.965zm-13.443 41.194c-8.039 0-17.459-1.255-25.244-3.266-2.887-.755-3.392-1.508-3.392-3.393V15.62c0-1.38 1.133-2.511 2.516-2.511h11.548a2.517 2.517 0 0 1 2.515 2.51v22.226c4.646-.625 9.046-.876 12.057-.876 20.221 0 30.015 11.937 30.015 31.528v9.67c0 19.587-9.794 31.524-30.015 31.524M365.33 51.411c-2.386-.496-7.538-.876-12.062-.876-10.795 0-13.433 7.661-13.433 17.962v9.67c0 10.298 2.638 17.964 13.433 17.964 4.524 0 9.676-.378 12.063-.88zm13.185 55.014c-7.788 2.011-17.203 3.266-25.247 3.266-20.223 0-30.016-11.937-30.016-31.525v-9.67c0-19.59 9.793-31.527 30.016-31.527 8.044 0 17.459 1.256 25.247 3.269 2.892.75 3.394 1.505 3.394 3.393v59.401c0 1.885-.502 2.638-3.394 3.393M434.283 108.061c-2.887.744-8.548 1.63-16.204 1.63-16.326 0-28.628-10.053-28.628-30.519V67.49c0-20.471 12.302-30.52 28.628-30.52 7.656 0 13.317.876 16.204 1.638 2.133.503 2.638 1.253 2.638 3.26v8.168c0 1.255-1.009 1.878-2.262 1.878h-.376c-5.023-.623-8.044-.876-16.204-.876-5.904 0-12.058 3.394-12.058 16.452v11.683c0 13.06 6.154 16.456 12.058 16.456 8.16 0 11.181-.253 16.204-.885h.376c1.253 0 2.262.632 2.262 1.89v8.16c0 2.009-.505 2.76-2.638 3.268M499.717 108.682h-15.321c-1.381 0-2.887-1.379-3.643-2.507L461.036 77.53v28.514c0 1.379-1.132 2.637-2.516 2.637h-11.556c-1.383 0-2.507-1.258-2.507-2.637V15.62c0-1.38 1.124-2.511 2.507-2.511h11.556a2.522 2.522 0 0 1 2.516 2.51v52.377l21.472-28.64c.885-1.131 2.136-1.511 2.89-1.511h14.069c1.258 0 1.885.509 1.885 1.39 0 .375-.127.754-.51 1.251L475.6 71.51l25.5 34.666c.252.374.375.627.375 1.005 0 .751-.75 1.502-1.758 1.502M548.325 66.737c0-9.797-5.405-15.447-13.192-15.447-7.785 0-13.436 5.524-13.436 15.447v.504h26.628zm14.188 12.307h-40.942v.375c0 7.286 3.016 15.956 15.073 15.956 9.165 0 17.835-.755 23.108-1.258h.376c1.257 0 2.26.626 2.26 1.88v8.294c0 2.016-.373 2.889-2.636 3.262-8.167 1.506-13.06 2.138-24.368 2.138-12.559 0-30.39-6.784-30.39-31.525V68.88c0-19.598 10.925-31.91 30.14-31.91 19.345 0 29.891 13.19 29.891 31.91v7.026c0 2.005-.753 3.139-2.512 3.139M627.955 108.682h-11.807c-1.381 0-2.395-1.258-2.395-2.637V62.594c0-6.155-1.252-11.805-8.533-11.805h-7.788c-7.281 0-8.543 5.65-8.543 11.805v43.45c0 1.38-1.002 2.638-2.385 2.638h-11.807c-1.381 0-2.381-1.258-2.381-2.637V62.594c0-15.198 8.785-25.625 25.116-25.625h7.788c16.323 0 25.117 10.427 25.117 25.625v43.45c0 1.38-1.008 2.638-2.382 2.638M679.316 51.411c-3.512-.496-9.039-.876-12.048-.876-10.808 0-13.447 7.661-13.447 17.962v9.67c0 10.298 2.639 17.964 13.447 17.964 4.515 0 9.663-.378 12.048-.88zm13.19 55.014c-7.787 2.011-17.202 3.266-25.238 3.266-20.228 0-30.023-11.937-30.023-31.525v-9.67c0-19.59 9.795-31.527 30.023-31.527 3.01 0 7.405.251 12.048.876V15.62a2.52 2.52 0 0 1 2.512-2.511h11.559a2.52 2.52 0 0 1 2.514 2.51v87.413c0 1.885-.505 2.638-3.394 3.393" fill="#fff"/>
    <path d="M720.775 108.682h-11.686c-1.378 0-2.514-1.258-2.514-2.637V15.62c0-1.38 1.136-2.511 2.514-2.511h11.686c1.38 0 2.378 1.132 2.378 2.51v90.426c0 1.379-.998 2.637-2.378 2.637M775.024 66.737c0-9.797-5.4-15.447-13.188-15.447-7.783 0-13.437 5.524-13.437 15.447v.504h26.625zm14.193 12.307h-40.944v.375c0 7.286 3.015 15.956 15.068 15.956 9.176 0 17.836-.755 23.11-1.258h.382c1.251 0 2.259.626 2.259 1.88v8.294c0 2.016-.383 2.889-2.641 3.262-8.164 1.506-13.063 2.138-24.359 2.138-12.56 0-30.397-6.784-30.397-31.525V68.88c0-19.598 10.929-31.91 30.141-31.91 19.341 0 29.895 13.19 29.895 31.91v7.026c0 2.005-.758 3.139-2.514 3.139M822.625 109.69c-4.896 0-15.444-.631-22.477-2.51-1.51-.378-2.388-1.387-2.388-2.89v-7.536c0-1 .879-2.011 2.261-2.011h.379c6.021.756 17.33 1.388 21.103 1.388 7.769 0 8.913-2.643 8.913-6.034 0-2.39-1.513-3.893-5.525-6.41l-17.212-10.55c-6.151-3.766-10.547-10.045-10.547-17.323 0-12.569 7.915-18.845 23.856-18.845 10.176 0 15.956 1.131 22.363 2.51 1.502.38 2.256 1.386 2.256 2.893v7.28c0 1.508-.874 2.388-2.127 2.388h-.384c-3.516-.506-13.561-1.505-20.721-1.505-6.027 0-8.662 1.378-8.662 5.279 0 2 1.88 3.263 5.026 5.141l16.446 10.053c10.554 6.4 12.052 12.68 12.052 19.09 0 10.923-8.153 19.593-24.612 19.593M877.772 109.69c-4.905 0-15.46-.631-22.49-2.51-1.511-.378-2.389-1.387-2.389-2.89v-7.536c0-1 .878-2.011 2.259-2.011h.383c6.034.756 17.332 1.388 21.098 1.388 7.792 0 8.918-2.643 8.918-6.034 0-2.39-1.511-3.893-5.523-6.41l-17.215-10.55c-6.154-3.766-10.55-10.045-10.55-17.323 0-12.569 7.917-18.845 23.862-18.845 10.179 0 15.956 1.131 22.363 2.51 1.508.38 2.267 1.386 2.267 2.893v7.28c0 1.508-.888 2.388-2.139 2.388h-.384c-3.517-.506-13.559-1.505-20.728-1.505-6.024 0-8.655 1.378-8.655 5.279 0 2 1.878 3.263 5.022 5.141l16.446 10.053c10.55 6.4 12.064 12.68 12.064 19.09 0 10.923-8.164 19.593-24.609 19.593" fill="#3a72c1"/>
    <path d="M841.883 96.329c.5-.549-.464.561 0 0" fill="#bf1c2d"/>
    <path d="M221.256 99.115c3.701-1.432 7.399-2.851 11.33-4.368-12.575 25.423-51.655 36.43-81.747 20.893-13.646-7.043-25.67-18.442-36.92-29.711-11.223-11.237-20.394-24.532-30.43-36.947C58.34 17.882 37.32 10.932 0 21.422 6.87 6.614 29.326-2.411 50.777.564c25.848 3.58 43.315 19.765 59.665 38.219 17.019 19.21 33.34 39.342 52.355 56.402 18.686 16.765 41.642 16.385 58.986 3.407l-.527.523"          fill="#fff" fill-rule="evenodd"/>
    <path d="M152.544 78.387c9.53-8.96 17.557-16.809 25.947-24.213 24.376-21.503 47.018-18.23 64.884 10.89-5.178-43.298-39.028-59.47-72.792-36.669C160 35.54 150.684 44.548 140.34 53.075c-6.124-4.216-12.25-8.432-18.382-12.65-.534.715-1.072 1.435-1.61 2.152 1.634 1.874 3.276 3.737 4.907 5.612 8.795 10.125 17.807 20.467 27.288 30.198M104.383 83.02c-33.85 30.204-59.906-15.104-59.906-15.104 13.207 57.003 48.07 51.514 71.758 39.362 6.345 3.08 15.474 6.312 21.508 9.234.533-.665 1.064-1.329 1.596-1.991-10.587-7.117-20.053-16.198-28.93-25.09a154.42 154.42 0 0 1-6.026-6.412"          fill="#3a72c1"/>
</svg>